<?xml version="1.0" encoding="UTF-8" standalone="no"?>
<svg
   xmlns:dc="http://purl.org/dc/elements/1.1/"
   xmlns:cc="http://creativecommons.org/ns#"
   xmlns:rdf="http://www.w3.org/1999/02/22-rdf-syntax-ns#"
   xmlns:svg="http://www.w3.org/2000/svg"
   xmlns="http://www.w3.org/2000/svg"
   xmlns:sodipodi="http://sodipodi.sourceforge.net/DTD/sodipodi-0.dtd"
   xmlns:inkscape="http://www.inkscape.org/namespaces/inkscape"
   width="1540"
   height="1980"
   id="svg8146"
   version="1.1"
   inkscape:version="0.48.5 r10040"
   sodipodi:docname="guide_cumul.svg">
  <metadata
     id="metadata8349">
    <rdf:RDF>
      <cc:Work
         rdf:about="">
        <dc:format>image/svg+xml</dc:format>
        <dc:type
           rdf:resource="http://purl.org/dc/dcmitype/StillImage" />
      </cc:Work>
    </rdf:RDF>
  </metadata>
  <sodipodi:namedview
     pagecolor="#ffffff"
     bordercolor="#666666"
     borderopacity="1"
     objecttolerance="10"
     gridtolerance="10"
     guidetolerance="10"
     inkscape:pageopacity="0"
     inkscape:pageshadow="2"
     inkscape:window-width="1497"
     inkscape:window-height="962"
     id="namedview8347"
     showgrid="false"
     inkscape:zoom="0.67425131"
     inkscape:cx="983.81078"
     inkscape:cy="412.67085"
     inkscape:window-x="0"
     inkscape:window-y="0"
     inkscape:window-maximized="0"
     inkscape:current-layer="g8170" />
  <!-- Created with SVG-edit - http://svg-edit.googlecode.com/ -->
  <defs
     id="defs8148">
    <radialGradient
       id="svg_70"
       cx="0.679688"
       cy="0.457031"
       r="1.394014"
       fx="0.679688"
       fy="0.457031">
      <stop
         offset="0"
         stop-color="#b2b2b2"
         id="stop8151" />
      <stop
         offset="1"
         stop-color="#e5e5e5"
         id="stop8153" />
    </radialGradient>
    <linearGradient
       id="svg_86"
       x1="0.46875"
       y1="0.605469"
       x2="0.96875"
       y2="0.160156">
      <stop
         offset="0"
         stop-color="#005fbf"
         id="stop8156" />
      <stop
         offset="1"
         stop-color="#007fff"
         id="stop8158" />
    </linearGradient>
    <linearGradient
       id="svg_100"
       x1="0.4375"
       y1="0.4375"
       x2="0.890625"
       y2="0.855469">
      <stop
         offset="0"
         stop-color="#191919"
         id="stop8161" />
      <stop
         offset="1"
         stop-color="#4c4c4c"
         id="stop8163" />
    </linearGradient>
    <linearGradient
       y2="1"
       x2="1"
       y1="0"
       x1="0"
       id="svg_285">
      <stop
         stop-color="#005fbf"
         offset="0"
         id="stop8166" />
      <stop
         stop-color="#56aaff"
         offset="1"
         id="stop8168" />
    </linearGradient>
  </defs>
  <g
     id="g8170">
    <rect
       ry="4"
       rx="4"
       id="svg_301"
       fill="#bfbfbf"
       stroke="#000000"
       opacity="0.15"
       x="2398.955316"
       y="-2313.508512"
       width="225.999993"
       height="15.000001"
       transform="matrix(-2.29768, -4.26644e-10, 2.06316e-10, -4.75141, 6404.16, -9329.72)" />
    <rect
       ry="10"
       rx="10"
       id="svg_283"
       height="171.999992"
       width="269.999992"
       y="1108.233151"
       x="468.11663"
       opacity="0.95"
       stroke-width="4"
       stroke="#dce7f2"
       fill="url(#svg_285)" />
    <ellipse
       fill="#ffffff"
       stroke="#666666"
       stroke-width="7"
       opacity="0.45"
       cx="770.983612"
       cy="930.533964"
       rx="69.999999"
       ry="69.999999"
       id="svg_115" />
    <ellipse
       fill="#ffffff"
       stroke="#666666"
       stroke-width="7"
       opacity="0.45"
       cx="582.983427"
       cy="866.533684"
       id="svg_114"
       rx="86.999998"
       ry="86.999998" />
    <rect
       fill="#bfbfbf"
       stroke="#666666"
       stroke-width="0"
       opacity="0.45"
       x="848.083233"
       y="644.133528"
       width="233.000027"
       height="55.999998"
       id="svg_82"
       rx="5"
       ry="5" />
    <rect
       fill="#7f7f7f"
       stroke="#ffaa56"
       stroke-width="0"
       x="186.399493"
       y="676.733714"
       width="200.999999"
       height="130.000001"
       id="svg_60"
       rx="5"
       ry="5" />
    <rect
       fill="#ff7f00"
       stroke="#ffaa56"
       stroke-width="0"
       x="698.399106"
       y="192.034493"
       width="126.000014"
       height="94.000004"
       opacity="0.15"
       rx="3"
       ry="3"
       id="svg_59" />
    <rect
       fill="#ff7f00"
       stroke="#ffaa56"
       stroke-width="0"
       x="694.39968"
       y="124.033113"
       width="237.000014"
       height="54.000001"
       id="svg_58"
       opacity="0.15"
       rx="3"
       ry="3" />
    <rect
       fill="#ffffaa"
       stroke="#ffaa56"
       stroke-width="4"
       opacity="0.6"
       x="52.083257"
       y="125.133016"
       width="645.999959"
       height="51.000001"
       rx="7"
       ry="7"
       id="svg_38" />
    <rect
       fill="#ffffaa"
       stroke="#ffaa56"
       stroke-width="4"
       opacity="0.6"
       x="50.08326"
       y="186.133253"
       width="647.999977"
       height="108.999998"
       id="svg_36"
       rx="13"
       ry="13" />
    <g
       id="svg_11">
      <rect
         fill="#7f7f7f"
         stroke="#000000"
         stroke-width="0"
         x="299.084352"
         y="219.133033"
         width="153.999996"
         height="34.999999"
         rx="9"
         ry="9"
         id="svg_12" />
      <rect
         fill="#bfbfbf"
         stroke="#000000"
         stroke-width="0"
         x="291.084352"
         y="225.133033"
         width="153.999996"
         height="34.999999"
         rx="9"
         ry="9"
         id="svg_13" />
    </g>
    <g
       id="svg_10">
      <rect
         fill="#7f7f7f"
         stroke="#000000"
         stroke-width="0"
         x="87.084352"
         y="219.133033"
         width="153.999996"
         height="34.999999"
         rx="9"
         ry="9"
         id="svg_9" />
      <rect
         fill="#bfbfbf"
         stroke="#000000"
         stroke-width="0"
         x="79.084352"
         y="225.133033"
         width="153.999996"
         height="34.999999"
         id="svg_8"
         rx="9"
         ry="9" />
    </g>
    <text
       fill="#000000"
       stroke="#000000"
       stroke-width="0"
       x="158.083344"
       y="250.006409"
       id="svg_1"
       font-size="24"
       font-family="serif"
       text-anchor="middle"
       xml:space="preserve">Predicate #1</text>
    <text
       fill="#000000"
       stroke="#000000"
       stroke-width="0"
       x="370.083344"
       y="250.006409"
       font-size="24"
       font-family="serif"
       text-anchor="middle"
       xml:space="preserve"
       id="svg_2">Predicate #2</text>
    <ellipse
       fill="#d4ffaa"
       stroke="#000000"
       stroke-width="3"
       cx="266.083344"
       cy="239.633362"
       id="svg_3"
       rx="11"
       ry="11" />
    <g
       id="svg_6">
      <line
         fill="none"
         stroke="#000000"
         stroke-width="3"
         x1="258.319549"
         y1="231.788653"
         x2="274.253515"
         y2="247.722619"
         id="svg_4" />
      <line
         fill="none"
         stroke="#000000"
         stroke-width="3"
         x1="258.082332"
         y1="247.445311"
         x2="273.984675"
         y2="231.542968"
         id="svg_5" />
    </g>
    <g
       id="svg_14">
      <rect
         fill="#7f7f7f"
         stroke="#000000"
         stroke-width="0"
         x="511.084352"
         y="219.133033"
         width="153.999996"
         height="34.999999"
         rx="9"
         ry="9"
         id="svg_15" />
      <rect
         fill="#bfbfbf"
         stroke="#000000"
         stroke-width="0"
         x="503.084352"
         y="225.133033"
         width="153.999996"
         height="34.999999"
         rx="9"
         ry="9"
         id="svg_16" />
    </g>
    <text
       fill="#000000"
       stroke="#000000"
       stroke-width="0"
       x="582.083344"
       y="250.006409"
       font-size="24"
       font-family="serif"
       text-anchor="middle"
       xml:space="preserve"
       id="svg_17">Predicate #3</text>
    <ellipse
       fill="#d4ffaa"
       stroke="#000000"
       stroke-width="3"
       cx="478.083344"
       cy="239.633362"
       rx="11"
       ry="11"
       id="svg_18" />
    <g
       id="svg_19">
      <line
         fill="none"
         stroke="#000000"
         stroke-width="3"
         x1="470.319549"
         y1="231.788653"
         x2="486.253515"
         y2="247.722619"
         id="svg_20" />
      <line
         fill="none"
         stroke="#000000"
         stroke-width="3"
         x1="470.082332"
         y1="247.445311"
         x2="485.984675"
         y2="231.542968"
         id="svg_21" />
    </g>
    <path
       fill="#7f7f7f"
       stroke="#000000"
       stroke-width="0"
       d="m156.275055,316.545929l-0.275055,14.759857l103.026642,0l-7.72226,17.694214l15.692383,-10.954407l17.003235,-12.778625l-17.918335,-15.258911l-14.497162,-12.008057l7.327057,18.747864l-102.636505,-0.201935z"
       id="svg_22"
       transform="rotate(50.7826, 220, 323.5)" />
    <g
       id="svg_32">
      <g
         id="svg_29">
        <rect
           fill="#3f3f3f"
           stroke="#000000"
           stroke-width="0"
           opacity="0.15"
           x="283.083439"
           y="340.133234"
           width="234.999992"
           height="136.378388"
           rx="10"
           ry="10"
           id="svg_27" />
        <rect
           fill="#3f3f3f"
           stroke="#000000"
           stroke-width="0"
           opacity="0.9"
           x="275.083439"
           y="345.619744"
           width="234.999992"
           height="139.513521"
           id="svg_25"
           rx="10"
           ry="10" />
      </g>
      <rect
         fill="#3f3f3f"
         stroke="#000000"
         stroke-width="0"
         opacity="0.9"
         x="275.083439"
         y="347.132956"
         width="234.999992"
         height="44.000002"
         rx="10"
         ry="10"
         id="svg_26" />
      <text
         fill="#ffffff"
         stroke="#000000"
         stroke-width="0"
         x="391.083344"
         y="377.133362"
         id="svg_24"
         font-size="23"
         font-family="Sans-serif"
         text-anchor="middle"
         xml:space="preserve"
         font-weight="normal"
         font-style="normal">Action Callback</text>
      <rect
         fill="#007fff"
         stroke="#666666"
         stroke-width="10"
         stroke-dasharray="2,2"
         opacity="0.2"
         x="283.083173"
         y="404.133439"
         width="221.000004"
         height="48.999998"
         id="svg_28" />
      <text
         fill="#ffffff"
         stroke="#000000"
         stroke-width="0"
         x="389.083344"
         y="437.133362"
         id="svg_30"
         font-size="23"
         font-family="Sans-serif"
         text-anchor="middle"
         xml:space="preserve">Eval</text>
    </g>
    <path
       fill="#7f7f7f"
       stroke="#000000"
       stroke-width="0"
       d="m342.335297,295.645782l-0.142853,12.42334l53.507477,0l-4.010651,14.893127l8.149963,-9.220276l8.83075,-10.755737l-9.306,-12.843353l-7.529205,-10.107117l3.805389,15.779999l-53.304871,-0.169983z"
       id="svg_33"
       transform="rotate(89.5372, 375.43, 301.498)" />
    <path
       fill="#7f7f7f"
       stroke="#000000"
       stroke-width="0"
       d="m507.275055,317.545929l-0.275055,14.759857l103.026611,0l-7.722229,17.694214l15.692383,-10.954407l17.003235,-12.778625l-17.918335,-15.258911l-14.497192,-12.008057l7.327087,18.747864l-102.636505,-0.201935z"
       id="svg_35"
       transform="rotate(127.739, 571, 324.5)" />
    <text
       x="219.08334"
       y="105.13336"
       id="svg_37"
       font-size="29"
       xml:space="preserve"
       font-weight="bold"
       style="font-size:29px;font-weight:bold;text-anchor:middle;fill:#ff7f00;stroke:#ffaa56;stroke-width:0;font-family:serif">GuiDef.xml</text>
    <text
       fill="#ff7f00"
       stroke="#ffaa56"
       stroke-width="0"
       x="649.083344"
       y="208.133362"
       id="svg_43"
       font-size="22"
       font-family="serif"
       text-anchor="middle"
       xml:space="preserve">rule #n</text>
    <text
       fill="#ff7f00"
       stroke="#ffaa56"
       stroke-width="0"
       x="648.083344"
       y="148.133362"
       font-size="22"
       font-family="serif"
       text-anchor="middle"
       xml:space="preserve"
       id="svg_44">rule #i</text>
    <title
       id="title8216">Layer 1</title>
    <rect
       fill="#7f7f7f"
       stroke="#ffaa56"
       stroke-width="0"
       x="719.400024"
       y="129.033325"
       width="94"
       height="40"
       id="svg_45"
       rx="4"
       ry="4" />
    <rect
       fill="#ff7f00"
       stroke="#ffaa56"
       x="715.400024"
       y="134.033325"
       width="94"
       height="40"
       id="svg_46"
       rx="4"
       ry="4" />
    <text
       fill="#ffffff"
       stroke="#ffaa56"
       stroke-width="0"
       x="764.400024"
       y="160.033325"
       id="svg_47"
       font-size="17"
       font-family="Sans-serif"
       text-anchor="middle"
       xml:space="preserve"
       font-weight="normal">Action 1</text>
    <rect
       fill="#7f7f7f"
       stroke="#ffaa56"
       stroke-width="0"
       x="826.400024"
       y="128.033325"
       width="94"
       height="40"
       rx="4"
       ry="4"
       id="svg_48" />
    <rect
       fill="#ff7f00"
       stroke="#ffaa56"
       x="822.400024"
       y="133.033325"
       width="94"
       height="40"
       rx="4"
       ry="4"
       id="svg_49" />
    <text
       fill="#ffffff"
       stroke="#ffaa56"
       stroke-width="0"
       x="871.400024"
       y="159.033325"
       font-size="17"
       font-family="Sans-serif"
       text-anchor="middle"
       xml:space="preserve"
       font-weight="normal"
       id="svg_50">Action 2</text>
    <rect
       fill="#7f7f7f"
       stroke="#ffaa56"
       stroke-width="0"
       x="720.400024"
       y="215.033325"
       width="94"
       height="40"
       rx="4"
       ry="4"
       id="svg_51" />
    <rect
       fill="#ff7f00"
       stroke="#ffaa56"
       x="716.400024"
       y="220.033325"
       width="94"
       height="40"
       rx="4"
       ry="4"
       id="svg_52" />
    <text
       fill="#ffffff"
       stroke="#ffaa56"
       stroke-width="0"
       x="765.400024"
       y="246.033325"
       font-size="17"
       font-family="Sans-serif"
       text-anchor="middle"
       xml:space="preserve"
       font-weight="normal"
       id="svg_53">Action 3</text>
    <g
       id="svg_57">
      <ellipse
         fill="#ff7f00"
         stroke="#ffaa56"
         stroke-width="2"
         cx="347.083344"
         cy="152.133362"
         id="svg_39"
         rx="6"
         ry="6" />
      <ellipse
         fill="#ff7f00"
         stroke="#ffaa56"
         stroke-width="2"
         cx="370.083344"
         cy="152.133362"
         rx="6"
         ry="6"
         id="svg_40" />
      <ellipse
         fill="#ff7f00"
         stroke="#ffaa56"
         stroke-width="2"
         cx="393.083344"
         cy="152.133362"
         rx="6"
         ry="6"
         id="svg_41" />
    </g>
    <rect
       fill="#ffffff"
       stroke="#ffaa56"
       stroke-width="0"
       x="218.400657"
       y="716.733398"
       width="138.000002"
       height="49"
       rx="5"
       ry="5"
       id="svg_62" />
    <rect
       fill="#000000"
       stroke="#ffaa56"
       stroke-width="0"
       x="215.400645"
       y="714.733379"
       width="138.999999"
       height="50"
       rx="5"
       ry="5"
       id="svg_63"
       opacity="0.8" />
    <rect
       fill="url(#svg_70)"
       stroke="#ffaa56"
       stroke-width="0"
       x="216.400645"
       y="715.733398"
       width="138.999999"
       height="49"
       id="svg_61"
       rx="5"
       ry="5" />
    <rect
       fill="#3f3f3f"
       stroke="#000000"
       stroke-width="0"
       opacity="0.15"
       x="541.083532"
       y="568.133266"
       width="249.99999"
       height="144.79235"
       rx="10"
       ry="10"
       id="svg_73" />
    <rect
       fill="#3f3f3f"
       stroke="#000000"
       stroke-width="0"
       opacity="0.9"
       x="548.083439"
       y="572.354857"
       width="234.999992"
       height="132.778382"
       rx="10"
       ry="10"
       id="svg_74" />
    <text
       fill="#000000"
       stroke="#ffaa56"
       stroke-width="0"
       opacity="0.8"
       x="285.400024"
       y="748.733398"
       id="svg_65"
       font-size="22"
       font-family="serif"
       text-anchor="middle"
       xml:space="preserve">Click here</text>
    <rect
       fill="#3f3f3f"
       stroke="#000000"
       stroke-width="0"
       opacity="0.9"
       x="548.083439"
       y="574.132956"
       width="234.999992"
       height="44.000002"
       rx="10"
       ry="10"
       id="svg_75" />
    <text
       fill="#ffffff"
       stroke="#000000"
       stroke-width="0"
       x="664.083344"
       y="604.133362"
       font-size="23"
       font-family="Sans-serif"
       text-anchor="middle"
       xml:space="preserve"
       font-weight="normal"
       font-style="normal"
       id="svg_76">Application</text>
    <rect
       fill="#007fff"
       stroke="#666666"
       stroke-width="10"
       stroke-dasharray="2,2"
       opacity="0.2"
       x="556.083173"
       y="631.133439"
       width="221.000004"
       height="48.999998"
       id="svg_77" />
    <text
       fill="#ffffff"
       stroke="#000000"
       stroke-width="0"
       x="662.083344"
       y="664.133362"
       font-size="23"
       font-family="Sans-serif"
       text-anchor="middle"
       xml:space="preserve"
       id="svg_78">GetOperation</text>
    <g
       id="svg_68">
      <path
         fill="#000000"
         stroke="#000000"
         stroke-width="0"
         opacity="0.25"
         d="m345.406067,752.730591l0.241882,21.292297l6.774597,-3.972961l5.705109,10.683899l5.024536,-2.860352l-6.389557,-9.978943l7.237335,-2.376892l-18.593903,-12.787048z"
         id="svg_67" />
      <path
         fill="#ffffff"
         stroke="#000000"
         d="m341.406067,753.730591l0.241882,21.292297l6.774597,-3.972961l5.705109,10.683899l5.024536,-2.860352l-6.389557,-9.978943l7.237335,-2.376892l-18.593903,-12.787048z"
         id="svg_66" />
    </g>
    <path
       fill="#ffffaa"
       stroke="#ffaa56"
       d="m280.334595,646.476624l-8.024719,0.954285l-10.820984,2.146362l-7.491455,2.861755l-10.269775,5.192993l-6.177612,6.784729l-3.309326,6.945557l-0.240723,9.164063l2.166382,8.93103l4.753601,5.860352l8.08313,4.34082l9.988647,2.861755l11.65332,0.715454l10.821045,0.715454l12.114563,0.554626l11.673584,0.434387l8.323853,0.482483l6.569031,2.423645l4.402649,2.608521l6.287842,5.586792l5.345276,5.241089l4.382446,6.278198l4.161926,6.439026l-2.517395,-9.489441l-3.720947,-7.825562l-2.346436,-6.294739l0.96283,-6.439026l2.236206,-6.969604l3.96167,-7.443787l2.517395,-6.889221l0.722107,-9.115906l-0.832397,-6.599854l-2.37677,-5.598877l-3.821106,-5.229004l-5.60614,-3.665955l-5.826721,-2.146301l-8.323853,-2.146362l-9.156189,-1.40686l-9.15625,-0.739502l-12.485718,0l-8.622986,0.476624z"
       id="svg_80" />
    <text
       fill="#000000"
       stroke="#ffaa56"
       stroke-width="0"
       opacity="0.8"
       x="291.400024"
       y="682.733398"
       id="svg_79"
       font-size="19"
       font-family="serif"
       text-anchor="middle"
       xml:space="preserve"
       font-style="italic"
       font-weight="bold">Action ID</text>
    <path
       fill="#ff7f00"
       stroke="#ffaa56"
       stroke-width="0"
       opacity="0.95"
       d="m346.113403,659.283936l2.563416,14.140808l0.536346,14.244812l15.934326,-8.294373l15.934265,-8.024597l9.993774,-4.168213l10.128662,-3.628662l10.775208,-3.028198l9.696198,-2.488647l12.712708,-2.213623l12.442902,-1.404419l10.053131,-0.941956l10.59259,-0.67218l10.253265,-0.158752l9.039276,-0.023804l9.713684,0.380737l9.174194,0.380737l6.757141,0.306213l6.082764,0.44104l6.352478,0.575928l5.408264,0.440979l-0.117554,5.765015l-5.647766,11.699829l33.507324,-11.902893l-21.951172,-32.709717l-1.063904,14.590637l-2.682495,5.013977l-14.131836,-2.327515l-11.569061,-1.922852l-9.815704,-1.403015l-8.736542,-1.133362l-8.466797,-0.998413l-9.950531,-0.863525l-7.656586,-0.335632l-8.330963,-0.200806l-7.521698,0.203918l-7.521698,0.203857l-6.421021,0.366089l-6.286133,0.500916l-6.825684,0.770691l-6.690796,0.905579l-8.055573,1.19104l-7.920685,1.674927l-8.19046,2.325745l-8.055542,2.270081l-8.476715,2.747742l-8.74646,2.612915l-8.611572,2.747742l-8.20697,2.343201z"
       id="svg_81" />
    <rect
       fill="url(#svg_86)"
       stroke="#666666"
       stroke-width="0"
       x="854.083173"
       y="647.133439"
       width="221.000004"
       height="48.999998"
       rx="5"
       ry="5"
       id="svg_83" />
    <text
       fill="#ffffff"
       stroke="#666666"
       stroke-width="0"
       x="967.116699"
       y="680.733398"
       font-size="26"
       font-family="Sans-serif"
       text-anchor="middle"
       xml:space="preserve"
       font-style="normal"
       font-weight="normal"
       id="svg_88">Operation</text>
    <path
       fill="#ff7f00"
       stroke="#ffaa56"
       stroke-width="0"
       opacity="0.95"
       d="m771.610168,658.457153l2.638245,6.378662l2.589294,6.895325l3.095154,-3.643127l5.49939,-4.385803l3.449219,-2.278198l3.495605,-1.983154l3.718811,-1.65509l3.346497,-1.360229l4.387573,-1.209778l4.294312,-0.767639l3.469666,-0.514832l3.655762,-0.367371l3.538757,-0.086731l3.119751,-0.013l3.352478,0.208069l3.166199,0.20813l2.332153,0.167358l2.099304,0.241028l2.192383,0.314819l1.866577,0.240906l-0.040588,3.15094l-1.949158,6.39447l11.564331,-6.505493l-7.575989,-17.877441l-0.367188,7.974487l-0.925842,2.740356l-4.877319,-1.272034l-3.992737,-1.050964l-3.387756,-0.766785l-3.015137,-0.619507l-2.92218,-0.545654l-3.434204,-0.471924l-2.642517,-0.183533l-2.875244,-0.109741l-2.595947,0.111511l-2.596008,0.11145l-2.216003,0.200012l-2.169617,0.273804l-2.355713,0.421265l-2.309204,0.494934l-2.780212,0.65094l-2.733582,0.915405l-2.826782,1.271179l-2.780273,1.240662l-2.925476,1.501831l-3.018677,1.42804l-2.972107,1.50177l-4.585999,2.630676z"
       id="svg_89"
       transform="rotate(24.5589, 809.051, 655.869)" />
    <rect
       fill="#3f3f3f"
       stroke="#ffaa56"
       stroke-width="0"
       x="724.981562"
       y="893.531974"
       width="89.601776"
       height="53.36283"
       id="svg_97" />
    <rect
       fill="#ffffff"
       stroke="#ffaa56"
       stroke-width="0"
       x="725.3798"
       y="893.930199"
       width="88.80531"
       height="52.964598"
       id="svg_96"
       opacity="0.9" />
    <rect
       fill="url(#svg_100)"
       stroke="#ffaa56"
       stroke-width="0"
       x="728.963913"
       y="898.709112"
       width="81.637166"
       height="45.796459"
       id="svg_95"
       fill-opacity="0.85" />
    <rect
       fill="#ffffff"
       stroke="#000000"
       opacity="0.65"
       x="777.149752"
       y="911.054507"
       width="25.884955"
       height="22.699115"
       id="svg_101" />
    <rect
       fill="#ffffff"
       stroke="#000000"
       opacity="0.65"
       x="765.20285"
       y="903.886366"
       width="25.884955"
       height="22.699115"
       id="svg_102" />
    <rect
       fill="#ffffff"
       stroke="#000000"
       opacity="0.65"
       x="746.884266"
       y="916.231498"
       width="25.884955"
       height="22.699115"
       id="svg_103" />
    <rect
       fill="#bfbfbf"
       stroke="#000000"
       opacity="0.2"
       x="1423.691016"
       y="-791.731954"
       width="226.00002"
       height="15.000001"
       id="svg_104"
       transform="matrix(-0.39823, -3.57583e-11, 3.57583e-11, -0.39823, 1381.94, 638.772)" />
    <g
       id="svg_111">
      <rect
         fill="#bfbfbf"
         stroke="#ffaa56"
         stroke-width="0"
         opacity="0.4"
         x="835.983337"
         y="704.533926"
         width="257.000002"
         height="72"
         id="svg_107"
         rx="16"
         ry="16" />
      <text
         fill="#000000"
         stroke="#ffaa56"
         stroke-width="0"
         opacity="0.7"
         x="967.983276"
         y="747.533447"
         id="svg_108"
         font-size="20"
         font-family="Sans-serif"
         text-anchor="middle"
         xml:space="preserve"
         font-style="italic">Custom logic</text>
      <text
         fill="#000000"
         stroke="#ffaa56"
         stroke-width="0"
         opacity="0.7"
         x="964.483276"
         y="724.533447"
         font-size="20"
         font-family="Sans-serif"
         text-anchor="middle"
         xml:space="preserve"
         font-style="italic"
         id="svg_109">...</text>
      <text
         fill="#000000"
         stroke="#ffaa56"
         stroke-width="0"
         opacity="0.7"
         x="964.483276"
         y="760.533447"
         font-size="20"
         font-family="Sans-serif"
         text-anchor="middle"
         xml:space="preserve"
         font-style="italic"
         id="svg_110">...</text>
    </g>
    <text
       fill="#3f3f3f"
       stroke="#ffaa56"
       stroke-width="0"
       opacity="0.8"
       x="769.983276"
       y="973.533447"
       font-size="20"
       font-family="Sans-serif"
       text-anchor="middle"
       xml:space="preserve"
       id="svg_106">Desktop</text>
    <g
       id="svg_112">
      <g
         id="svg_93">
        <ellipse
           fill="#7f7f7f"
           stroke="#ffaa56"
           stroke-width="0"
           cx="581.868647"
           cy="887.309588"
           rx="38.424779"
           ry="6.727076"
           id="svg_92" />
        <ellipse
           fill="#7f7f7f"
           stroke="#ffaa56"
           stroke-width="0"
           cx="582.328824"
           cy="811.258226"
           id="svg_90"
           rx="38.424779"
           ry="6.727076" />
        <path
           fill="#bfbfbf"
           stroke="#ffaa56"
           stroke-width="0"
           d="m543.44458,811.612915l4.486694,2.19519l5.407043,1.911865l7.132751,1.274658l10.584106,0.849731l10.584045,0.141602l9.663696,-0.141602l9.663757,-0.566528l9.203491,-1.274597l6.672607,-1.628662l4.141602,-2.761658l-0.529114,76.146973l-4.998779,2.96167l-5.919067,1.545471l-7.679138,0.814331l-9.980164,0.955994l-11.130493,0.247803l-9.519897,-0.460266l-10.900452,-0.601868l-7.060791,-1.150757l-4.91095,-1.283447l-5.371155,-2.841309l0.460205,-76.334595z"
           id="svg_91"
           opacity="0.8" />
      </g>
      <text
         fill="#3f3f3f"
         stroke="#ffaa56"
         stroke-width="0"
         opacity="0.8"
         x="583.983276"
         y="917.533447"
         id="svg_94"
         font-size="20"
         font-family="Sans-serif"
         text-anchor="middle"
         xml:space="preserve">Data Model</text>
    </g>
    <path
       fill="#7f7f7f"
       stroke="#666666"
       stroke-width="0"
       opacity="0.45"
       d="m824.144714,752.998657l-127.269836,61.796997l-11.026245,-20.556702l-9.848633,44.83905l38.323059,8.277588l-9.715088,-18.288818l126.392029,-61.715149l-6.855286,-14.352966z"
       id="svg_116"
       transform="rotate(9.07341, 753.5, 800.178)" />
    <text
       id="svg_54"
       fill="#3f3f3f"
       stroke="#ffaa56"
       stroke-width="0"
       opacity="0.8"
       x="334.983276"
       y="1244.533447"
       font-size="20"
       font-family="Sans-serif"
       text-anchor="middle"
       xml:space="preserve">Data Node</text>
    <path
       fill="#7f7f7f"
       stroke="#666666"
       stroke-width="0"
       opacity="0.45"
       d="m922.004578,794.591431l-94.20813,45.743652l-8.161926,-15.216614l-7.290161,33.190979l28.367615,6.127258l-7.191345,-13.537842l93.558411,-45.682983l-5.074463,-10.624451z"
       id="svg_117"
       transform="rotate(-17.7608, 869.711, 829.514)" />
    <path
       id="svg_98"
       d="m400.9487,1170.718628l-23.9487,15.491333l24.236542,15.783936l0,-9.785522l46.453308,0l0.267914,-0.150024l0.042236,-4.540283l-0.042236,-6.942505l-0.267914,0.012329l-46.453308,0l-0.287842,-9.869263z"
       opacity="0.65"
       stroke-width="0"
       stroke="#666666"
       fill="#007fff" />
    <g
       id="svg_137">
      <ellipse
         opacity="0.65"
         id="svg_129"
         fill="#7f7f7f"
         stroke="#ffaa56"
         stroke-width="0"
         cx="332.048923"
         cy="1176.807309"
         rx="20.907026"
         ry="3.618453" />
      <ellipse
         id="svg_133"
         opacity="0.65"
         fill="#7f7f7f"
         stroke="#ffaa56"
         stroke-width="0"
         cx="331.689966"
         cy="1216.637965"
         rx="20.668455"
         ry="3.618453" />
      <ellipse
         id="svg_134"
         opacity="0.3"
         fill="#7f7f7f"
         stroke="#ffaa56"
         stroke-width="0"
         cx="331.873924"
         cy="1197.582339"
         rx="20.859163"
         ry="3.618453" />
      <path
         id="svg_135"
         fill="#7f7f7f"
         stroke="#ffaa56"
         stroke-width="0"
         d="m311.078979,1198.349243l2.42627,1.015869l3.26416,0.744263l2.178955,0.434814l2.039063,0.154785l2.681519,0.232422l2.401611,0.232422l5.877441,0.050049l4.943726,-0.037231l5.19812,-0.403198l5.204712,-0.716675l3.207764,-0.809814l2.157715,-1.063477l-0.2146,18.671021l-2.688843,1.688843l-3.11377,0.75647l-3.710571,0.354248l-5.858276,0.671387l-5.987061,0.065186l-5.120605,-0.121094l-5.723267,-0.648315l-3.728027,-0.512573l-2.851563,-0.617554l-2.679077,-1.167236l0.094604,-18.974609z"
         opacity="0.52" />
      <path
         id="svg_130"
         fill="#7f7f7f"
         stroke="#ffaa56"
         stroke-width="0"
         d="m311.276123,1177.161377l2.286255,1.467285l3.289917,0.757202l4.09082,0.589478l5.438843,0.477783l5.947388,0.164307l5.070923,-0.164307l5.706665,-0.40332l4.441895,-0.716675l3.716309,-0.93689l1.719238,-1.107666l-0.354614,20.618042l-2.027344,1.020264l-2.751099,0.87085l-4.213379,0.665527l-4.30542,0.448486l-3.699951,0.229736l-3.769897,0.089722l-4.695068,-0.07666l-3.433716,-0.193481l-2.880981,-0.320557l-3.886475,-0.473999l-2.934448,-0.871948l-2.876221,-1.198608l0.120361,-20.93457z"
         opacity="0.52" />
    </g>
    <g
       id="svg_206">
      <path
         id="svg_167"
         d="m668.467224,1171.403564l46.885681,3.12854l0.721985,38.625122l-47.64978,-5.053711l0.042114,-36.699951z"
         opacity="0.65"
         stroke="#ff7f00"
         fill="#ffb200" />
      <path
         id="svg_162"
         d="m520.073975,1151.223999l68.585022,-3.289795l0,112.152832l-67.291565,-21.533325l-1.293457,-87.329712z"
         opacity="0.65"
         stroke="#ff7f00"
         fill="#ffb200" />
      <path
         id="svg_163"
         d="m682.022522,1147.63501l0.39624,91.367188l-60.562439,-15.252808l-0.448608,-69.08606l60.614807,-7.02832z"
         opacity="0.65"
         stroke="#ff7f00"
         fill="#ffb200" />
      <path
         id="svg_165"
         d="m552.230713,1129.168457l90.925598,-11.310669l-1.082947,152.334839l-89.523804,-24.185913l-0.318848,-116.838257z"
         opacity="0.65"
         stroke="#ff7f00"
         fill="#ffb200" />
      <path
         id="svg_166"
         d="m481.117004,1176.818237l55.188293,-0.120239l0,72.557617l-54.508453,-19.13208l-0.67984,-53.305298z"
         opacity="0.65"
         stroke="#ff7f00"
         fill="#ffb200" />
      <path
         id="svg_138"
         d="m481.415009,1177.129639l0.74408,52.742432l53.796722,19.635864l0,-72.769531l-54.540802,0.391235z"
         opacity="0.6"
         stroke="#666666"
         fill="#ffb200" />
      <path
         id="svg_139"
         d="m481.790222,1177.138306l69.929443,-47.453369l92.291321,-11.907593l-106.463013,58.430054l-55.757751,0.930908z"
         opacity="0.65"
         stroke="#666666"
         fill="#ffb200" />
      <path
         id="svg_140"
         d="m536.514282,1249.650391l105.594788,20.99646l0.95105,-152.155884l-106.573608,58.247437l0.027771,72.911987z"
         opacity="0.6"
         stroke="#666666"
         fill="#ffb200" />
      <path
         id="svg_143"
         d="m643.559631,1118.061646l72.495361,56.545044l0,38.321533l-73.576782,56.71521l1.081421,-151.581787z"
         opacity="0.8"
         stroke="#666666"
         fill="#ffb200" />
      <line
         id="svg_145"
         y2="1245.97027"
         x2="552.662323"
         y1="1130.278418"
         x1="552.131627"
         opacity="0.3"
         stroke-dasharray="5,5"
         stroke="#666666"
         fill="#ffb200" />
      <line
         id="svg_146"
         y2="1171.14216"
         x2="668.354178"
         y1="1130.80922"
         x1="553.19302"
         opacity="0.3"
         stroke-dasharray="5,5"
         stroke="#666666"
         fill="#ffb200" />
      <line
         id="svg_147"
         y2="1174.857036"
         x2="715.586174"
         y1="1171.14216"
         x1="668.354178"
         opacity="0.3"
         stroke-dasharray="5,5"
         stroke="#666666"
         fill="#ffb200" />
      <line
         id="svg_148"
         y2="1208.29092"
         x2="669.946268"
         y1="1213.06719"
         x1="716.11687"
         opacity="0.3"
         stroke-dasharray="5,5"
         stroke="#666666"
         fill="#ffb200" />
      <line
         id="svg_149"
         y2="1207.760224"
         x2="668.354178"
         y1="1171.672856"
         x1="668.354178"
         opacity="0.3"
         stroke-dasharray="5,5"
         stroke="#666666"
         fill="#ffb200" />
      <line
         id="svg_150"
         y2="1246.501182"
         x2="553.192901"
         y1="1208.821724"
         x1="668.884759"
         opacity="0.3"
         stroke-dasharray="5,5"
         stroke="#666666"
         fill="#ffb200" />
      <line
         id="svg_151"
         y2="1246.501074"
         x2="552.662323"
         y1="1269.321027"
         x1="640.757956"
         opacity="0.3"
         stroke-dasharray="5,5"
         stroke="#666666"
         fill="#ffb200" />
      <line
         id="svg_152"
         y2="1246.501074"
         x2="552.131627"
         y1="1228.988087"
         x1="482.610375"
         opacity="0.3"
         stroke-dasharray="5,5"
         stroke="#666666"
         fill="#ffb200" />
    </g>
    <g
       id="svg_225">
      <path
         id="svg_208"
         d="m828.753052,1432.716553l40.700684,2.71582l0.626831,33.529907l-41.364136,-4.387085l0.036621,-31.858643z"
         opacity="0.65"
         stroke-width="2"
         stroke="#666666"
         fill="none" />
      <path
         id="svg_211"
         d="m727.849854,1396.052979l78.93103,-9.818726l-0.940002,132.239624l-77.714294,-20.995361l-0.276733,-101.425537z"
         opacity="0.65"
         stroke-width="2"
         stroke="#666666"
         fill="none" />
      <path
         id="svg_212"
         d="m666.117065,1437.416992l47.908142,-0.10437l0,62.986084l-47.317932,-16.608154l-0.59021,-46.27356z"
         opacity="0.65"
         stroke-width="2"
         stroke="#666666"
         fill="none" />
      <path
         id="svg_213"
         d="m666.375793,1437.687256l0.645874,45.784912l46.700134,17.045654l0.387146,-63.170166l-47.733154,0.3396z"
         opacity="0.6"
         stroke-width="2"
         stroke="#666666"
         fill="none" />
      <path
         id="svg_214"
         d="m666.701477,1437.307739l60.704712,-41.193604l80.11676,-10.336792l-93.967407,51.883545l-46.854065,-0.353149z"
         opacity="0.65"
         stroke-width="2"
         stroke="#666666"
         fill="none" />
      <path
         id="svg_215"
         d="m714.206604,1500.641479l91.665344,18.226685l0.825439,-132.084229l-92.514893,50.563721l0.024109,63.293823z"
         opacity="0.6"
         stroke-width="2"
         stroke="#666666"
         fill="none" />
      <path
         id="svg_216"
         stroke-width="2"
         d="m806.743958,1386.02417l62.93219,49.085938l0,33.266357l-63.483765,50.394897l0.551575,-132.747192z"
         opacity="0.8"
         stroke="#666666"
         fill="none" />
      <line
         id="svg_217"
         stroke-width="2"
         y2="1497.446817"
         x2="728.2245"
         y1="1397.016444"
         x1="727.76381"
         opacity="0.3"
         stroke-dasharray="5,5"
         stroke="#666666"
         fill="none" />
      <line
         id="svg_218"
         stroke-width="2"
         y2="1432.48965"
         x2="828.654874"
         y1="1397.477225"
         x1="728.685189"
         opacity="0.3"
         stroke-dasharray="5,5"
         stroke="#666666"
         fill="none" />
      <line
         id="svg_219"
         stroke-width="2"
         y2="1435.714478"
         x2="869.656266"
         y1="1432.48965"
         x1="828.654874"
         opacity="0.3"
         stroke-dasharray="5,5"
         stroke="#666666"
         fill="none" />
      <line
         id="svg_220"
         stroke-width="2"
         y2="1464.737935"
         x2="830.036944"
         y1="1468.884143"
         x1="870.116956"
         opacity="0.3"
         stroke-dasharray="5,5"
         stroke="#666666"
         fill="none" />
      <line
         id="svg_221"
         stroke-width="2"
         y2="1464.277245"
         x2="828.654874"
         y1="1432.950339"
         x1="828.654874"
         opacity="0.3"
         stroke-dasharray="5,5"
         stroke="#666666"
         fill="none" />
      <line
         id="svg_222"
         stroke-width="2"
         y2="1497.907694"
         x2="728.685086"
         y1="1465.198718"
         x1="829.115464"
         opacity="0.3"
         stroke-dasharray="5,5"
         stroke="#666666"
         fill="none" />
      <line
         id="svg_223"
         stroke-width="2"
         y2="1497.9076"
         x2="728.2245"
         y1="1517.717261"
         x1="804.699005"
         opacity="0.3"
         stroke-dasharray="5,5"
         stroke="#666666"
         fill="none" />
      <line
         id="svg_224"
         stroke-width="2"
         y2="1497.9076"
         x2="727.76381"
         y1="1482.704837"
         x1="667.413447"
         opacity="0.3"
         stroke-dasharray="5,5"
         stroke="#666666"
         fill="none" />
    </g>
    <g
       id="svg_280">
      <path
         id="svg_258"
         d="m551.808228,1408.580566l39.099854,2.609009l0.134399,32.211182l-39.269531,-4.214478l0.035278,-30.605713z"
         opacity="0.65"
         stroke="#ff7f00"
         fill="#ffb200" />
      <path
         id="svg_259"
         d="m435.072632,1395.961548l57.195862,-2.74353l0,93.528931l-56.117188,-17.95752l-1.078674,-72.827881z"
         opacity="0.65"
         stroke="#ff7f00"
         fill="#ffb200" />
      <path
         id="svg_260"
         d="m570.595947,1388.759033l0.330444,76.194946l-50.505493,-12.719971l-0.374146,-57.61377l50.549194,-5.861206z"
         opacity="0.65"
         stroke="#ff7f00"
         fill="#ffb200" />
      <path
         id="svg_261"
         d="m467.502197,1375.229858l75.826538,-9.432373l-0.903076,127.03833l-74.657593,-20.169556l-0.265869,-97.436401z"
         opacity="0.65"
         stroke="#ff7f00"
         fill="#ffb200" />
      <path
         id="svg_262"
         d="m402.117065,1416.370239l46.023865,-0.100342l0,60.508911l-45.456909,-15.955078l-0.566956,-44.453491z"
         opacity="0.65"
         stroke="#ff7f00"
         fill="#ffb200" />
    </g>
    <g
       id="svg_282">
      <path
         id="svg_231"
         d="m810.711914,1240.540283l46.463989,-0.992554l0,61.533081l-45.891602,-16.107666l-0.572388,-44.432861z"
         opacity="0.75"
         stroke-width="0"
         stroke="#ff7f00"
         fill="#ffb200" />
      <path
         id="svg_233"
         d="m810.387451,1240.80957l58.874939,-39.951782l77.701599,-10.025146l-89.632996,49.193237l-46.943542,0.783691z"
         opacity="0.8"
         stroke-width="0"
         stroke="#666666"
         fill="#ffb200" />
      <path
         id="svg_234"
         d="m856.906311,1300.967651l88.9021,17.677246l0.800659,-128.102661l-89.726135,49.039551l0.023376,61.385864z"
         opacity="0.65"
         stroke-width="0"
         stroke="#666666"
         fill="#ffb200" />
      <path
         id="svg_235"
         stroke-width="0"
         d="m946.584045,1190.993042l61.035095,47.606445l0,32.26355l-61.945557,47.749512l0.910461,-127.619507z"
         opacity="0.65"
         stroke="#666666"
         fill="#ffb200" />
      <line
         id="svg_236"
         stroke-width="0"
         y2="1297.869272"
         x2="870.501603"
         y1="1200.46623"
         x1="870.0548"
         opacity="0.3"
         stroke-dasharray="5,5"
         stroke="#666666"
         fill="#ffb200" />
      <line
         id="svg_237"
         stroke-width="0"
         y2="1234.870146"
         x2="967.904647"
         y1="1200.913121"
         x1="870.948406"
         opacity="0.3"
         stroke-dasharray="5,5"
         stroke="#666666"
         fill="#ffb200" />
      <line
         id="svg_238"
         stroke-width="0"
         y2="1237.997767"
         x2="1007.670111"
         y1="1234.870146"
         x1="967.904647"
         opacity="0.3"
         stroke-dasharray="5,5"
         stroke="#666666"
         fill="#ffb200" />
      <line
         id="svg_239"
         stroke-width="0"
         y2="1266.146353"
         x2="969.245056"
         y1="1270.167579"
         x1="1008.116913"
         opacity="0.3"
         stroke-dasharray="5,5"
         stroke="#666666"
         fill="#ffb200" />
      <line
         id="svg_240"
         stroke-width="0"
         y2="1265.69955"
         x2="967.904647"
         y1="1235.316949"
         x1="967.904647"
         opacity="0.3"
         stroke-dasharray="5,5"
         stroke="#666666"
         fill="#ffb200" />
      <line
         id="svg_241"
         stroke-width="0"
         y2="1298.316257"
         x2="870.948306"
         y1="1266.593246"
         x1="968.351353"
         opacity="0.3"
         stroke-dasharray="5,5"
         stroke="#666666"
         fill="#ffb200" />
      <line
         id="svg_242"
         stroke-width="0"
         y2="1298.316166"
         x2="870.501603"
         y1="1317.528693"
         x1="944.670894"
         opacity="0.3"
         stroke-dasharray="5,5"
         stroke="#666666"
         fill="#ffb200" />
      <line
         id="svg_243"
         stroke-width="0"
         y2="1298.316166"
         x2="870.0548"
         y1="1283.571668"
         x1="811.523613"
         opacity="0.3"
         stroke-dasharray="5,5"
         stroke="#666666"
         fill="#ffb200" />
    </g>
    <text
       xml:space="preserve"
       text-anchor="middle"
       font-family="Sans-serif"
       font-size="20"
       id="svg_286"
       y="1099.233398"
       x="544.116699"
       stroke-width="0"
       stroke="#dce7f2"
       fill="#7f7f7f">Presentation</text>
    <rect
       opacity="0.2"
       ry="51"
       rx="51"
       id="svg_287"
       height="158"
       width="239"
       y="1173.233398"
       x="796.116699"
       stroke-width="7"
       stroke="#666666"
       fill="none" />
    <rect
       id="svg_288"
       opacity="0.2"
       ry="51"
       rx="51"
       height="158"
       width="239"
       y="1371.233398"
       x="649.116699"
       stroke-width="7"
       stroke="#666666"
       fill="none" />
    <rect
       id="svg_289"
       opacity="0.2"
       ry="51"
       rx="51"
       height="158"
       width="239"
       y="1347.233398"
       x="373.116699"
       stroke-width="7"
       stroke="#666666"
       fill="none" />
    <path
       id="svg_290"
       fill="#7f7f7f"
       stroke="#666666"
       stroke-width="0"
       opacity="0.45"
       d="m774.24707,1203.443237l-19.271057,14.319336l-5.587402,-11.379272l-6.447266,23.550415l22.950989,8.199585l-6.078186,-11.442139l25.867798,-7.123779l-11.434875,-16.124146z"
       transform="rotate(-144.116, 764.312, 1220.79)" />
    <path
       id="svg_291"
       fill="#7f7f7f"
       stroke="#666666"
       stroke-width="0"
       opacity="0.45"
       d="m742.904419,1293.590576l-57.143799,38.949829l-5.587402,-11.379272l-6.447266,23.550415l22.950989,8.199585l-6.078186,-11.442139l55.456055,-18.894775l-3.150391,-28.983643z"
       transform="rotate(-84.6616, 709.889, 1323.25)" />
    <path
       id="svg_292"
       fill="#7f7f7f"
       stroke="#666666"
       stroke-width="0"
       opacity="0.45"
       d="m580.141052,1293.885986l-35.217712,15.944214l-5.588013,-11.380005l-6.44696,23.549927l22.950989,8.200073l-6.078003,-11.440063l51.861511,-12.893555l-21.481812,-11.980591z"
       transform="rotate(-30.8977, 567.256, 1312.04)" />
    <text
       id="svg_293"
       xml:space="preserve"
       text-anchor="middle"
       font-family="Sans-serif"
       font-size="20"
       y="1354.233398"
       x="963.116699"
       stroke-width="0"
       stroke="#dce7f2"
       fill="#7f7f7f">Pipeline #1</text>
    <text
       id="svg_294"
       xml:space="preserve"
       text-anchor="middle"
       font-family="Sans-serif"
       font-size="20"
       y="1554.233398"
       x="813.116699"
       stroke-width="0"
       stroke="#dce7f2"
       fill="#7f7f7f">Pipeline #2</text>
    <text
       id="svg_295"
       xml:space="preserve"
       text-anchor="middle"
       font-family="Sans-serif"
       font-size="20"
       y="1533.233398"
       x="542.116699"
       stroke-width="0"
       stroke="#dce7f2"
       fill="#7f7f7f">Pipeline #3</text>
    <path
       transform="rotate(-180, 412.5, 1211.36)"
       id="svg_296"
       d="m400.9487,1195.718628l-23.9487,15.491333l24.236542,15.783936l0,-9.785522l46.453308,0l0.267914,-0.150024l0.042236,-4.540283l-0.042236,-6.942505l-0.267914,0.012329l-46.453308,0l-0.287842,-9.869263z"
       opacity="0.65"
       stroke-width="0"
       stroke="#666666"
       fill="#ff0000" />
    <path
       id="svg_297"
       transform="rotate(-180, 417, 1641.19)"
       d="m410.492157,1632.382202l-13.492218,8.727539l13.654388,8.892334l0,-5.512939l26.170868,0l0.15094,-0.084473l0.023804,-2.557983l-0.023804,-3.911255l-0.15094,0.006958l-26.170868,0l-0.16217,-5.560181z"
       opacity="0.65"
       stroke-width="0"
       stroke="#666666"
       fill="#ff0000" />
    <text
       xml:space="preserve"
       text-anchor="middle"
       font-family="Sans-serif"
       font-size="16"
       id="svg_298"
       y="1645.43335"
       x="647.116699"
       opacity="0.9"
       stroke-width="0"
       stroke="#666666"
       fill="#3f3f3f">Presentation Manager stores Node-Presentation mapping</text>
    <path
       id="svg_299"
       d="m409.154907,1603.718628l-13.154907,8.509399l13.313019,8.670044l0,-5.375122l25.516602,0l0.147186,-0.08252l0.023193,-2.493896l-0.023193,-3.813477l-0.147186,0.006714l-25.516602,0l-0.158112,-5.421143z"
       opacity="0.65"
       stroke-width="0"
       stroke="#666666"
       fill="#007fff" />
    <text
       id="svg_300"
       xml:space="preserve"
       text-anchor="middle"
       font-family="Sans-serif"
       font-size="16"
       y="1618.43335"
       x="656.116699"
       opacity="0.9"
       stroke-width="0"
       stroke="#666666"
       fill="#3f3f3f">VTK Information attribute stores Presentation-Node mapping</text>
  </g>
</svg>
